<svg width="89" height="46" viewBox="0 0 89 46" fill="none" xmlns="http://www.w3.org/2000/svg">
<path d="M15.2079 0.1567V1.081L16.0909 1.2783C17.4482 1.608 17.6526 2.3999 18.1949 4.9065L19.6078 11.9534L15.6696 32.5372L10.3059 6.6739C9.694 3.8363 9.491 1.7256 11.6646 1.2634L12.6825 1.0662V0.1567H0V1.081L1.2905 1.4121C2.581 1.7418 3.1233 2.335 4.0064 6.228L12.6283 45.8784H14.8533L20.6243 15.9261L27.0212 45.8784H28.7874L37.071 7.4536C38.023 3.035 38.43 1.7783 40.061 1.3729L41.35 1.0418V0.1567H32.033V1.081L33.458 1.3445C35.496 1.7404 35.97 2.9931 35.019 8.0738L29.94 32.5372L24.7947 6.6739C24.2385 4.1011 23.9117 1.7256 26.1534 1.3297L27.6471 1.0662V0.141899L15.2079 0.1567ZM75.622 0.281099V1.2053L77.319 1.6013C78.811 1.931 79.423 2.4593 79.423 4.3065V36.3046C79.423 39.8666 79.423 44.5514 75.619 44.5514C73.447 44.5514 71.754 42.7042 71.887 41.4502C72.022 39.4058 75.689 39.5368 75.892 36.2384C76.096 33.9412 74.601 32.8602 73.108 32.6752C71.004 32.4116 68.424 34.1264 68.355 37.5572C68.288 41.976 71.275 46 76.365 46C81.997 46 85.682 42.3084 85.682 35.248L85.683 4.3714C85.683 2.5242 86.159 1.9296 87.516 1.6013L89 1.1905V0.266199L75.622 0.281099ZM52.747 0C46.975 0 43.717 4.6849 43.717 10.8196C43.717 22.2338 58.858 26.6538 58.858 36.9464C58.858 41.8286 56.753 44.5326 53.713 44.5326C49.165 44.5326 45.904 39.191 45.091 30.6792H44.073V45.7216H44.888C45.567 43.5596 46.45 43.3474 47.196 43.3474C48.487 43.3474 49.843 45.9824 53.781 45.9824C59.823 45.9824 63.76 40.9044 63.763 33.9074C63.763 20.1852 48.622 16.8206 48.622 6.9901C48.622 4.747 49.3 1.4499 52.696 1.4499C57.586 1.4499 59.691 7.7171 60.505 15.3045H61.523V0.2649H60.708C60.368 1.7161 59.758 2.3755 58.875 2.3755C57.313 2.3755 56.511 0.00139999 52.764 0.00139999L52.747 0ZM63.677 12.9384V13.1006L63.709 13.0817L63.692 12.9465L63.677 12.9384Z" fill="#666565"/>
</svg>
