<svg width="134" height="33" viewBox="0 0 134 33" fill="none" xmlns="http://www.w3.org/2000/svg">
<path fill-rule="evenodd" clip-rule="evenodd" d="M61.925 31.8371H69.909V1.41406H61.925V31.8371Z" fill="#6D6D6D"/>
<path fill-rule="evenodd" clip-rule="evenodd" d="M89.735 25.4284C94.808 25.4284 98.535 21.2762 98.535 16.6151C98.535 11.9536 94.787 7.8408 89.735 7.8408C84.661 7.8408 80.913 11.9536 80.913 16.6151C80.913 21.2762 84.661 25.4284 89.735 25.4284ZM89.797 0.4375C99.363 0.4375 107.067 7.4491 107.067 16.5563C107.067 25.7026 99.301 32.851 89.714 32.851C80.126 32.851 72.361 25.8006 72.361 16.6739C72.361 7.5664 80.23 0.4375 89.797 0.4375ZM107.985 22.635L115.31 20.9889C115.836 24.6445 118.649 25.9653 121.603 25.9653C124.538 25.9653 125.61 24.3192 125.61 23.0368C125.61 22.0033 124.983 20.9889 122.838 20.5871L118.366 19.7639C113.023 18.788 109.24 15.6107 109.24 10.7302C109.24 4.912 114.844 0.8162 121.178 0.8162C129.333 0.8162 132.693 5.6393 133.28 9.6778L126.096 11.5916C125.711 9.1034 124.092 7.3045 121.138 7.3045C118.588 7.3045 117.374 8.9122 117.374 10.137C117.374 11.1514 117.88 12.3189 119.782 12.6634L124.436 13.5055C130.527 14.6157 133.866 18.1372 133.866 22.7115C133.866 27.6879 129.333 32.4726 121.563 32.4726C113.428 32.4726 109.057 28.4341 107.985 22.635Z" fill="#6D6D6D"/>
<path fill-rule="evenodd" clip-rule="evenodd" d="M8.5921 31.8371H0L14.2076 1.41406H22.8407L8.5921 31.8371Z" fill="#878787"/>
<path fill-rule="evenodd" clip-rule="evenodd" d="M49.2828 16.2762L59.955 1.39062H50.1904L44.4347 10.4018L38.8121 1.39062H28.9157L39.7268 16.2762L33.7111 24.6184L22.8732 1.40863H14.2391L28.4887 31.8325H37.7034L44.4347 22.1881L51.0865 31.8325H60.402L49.2828 16.2762Z" fill="#6D6D6D"/>
</svg>
