<svg width="134" height="31" viewBox="0 0 134 31" fill="none" xmlns="http://www.w3.org/2000/svg">
<path d="M17.2178 7.0964V23.8289C17.2178 25.7109 17.9671 27.5161 19.3008 28.8467C20.6345 30.1776 22.4435 30.9252 24.3296 30.9252C26.2157 30.9252 28.0246 30.1776 29.3584 28.8467C30.6921 27.5161 31.4414 25.7109 31.4414 23.8289V7.0964C31.4414 5.2143 30.6921 3.4093 29.3584 2.0785C28.0246 0.747699 26.2157 0 24.3296 0C22.4435 0 20.6345 0.747699 19.3008 2.0785C17.9671 3.4093 17.2178 5.2143 17.2178 7.0964ZM22.3083 23.8289V7.0964C22.3054 6.8276 22.3586 6.5612 22.4649 6.3142C22.5712 6.0671 22.7281 5.8451 22.9254 5.6622C23.1228 5.4792 23.3565 5.3396 23.611 5.2521C23.8658 5.1646 24.1361 5.1313 24.4044 5.1542C24.6623 5.1459 24.9192 5.1905 25.159 5.2851C25.399 5.3798 25.6169 5.5226 25.7993 5.7046C25.9817 5.8866 26.1247 6.104 26.2197 6.3434C26.3146 6.5828 26.3592 6.8391 26.3509 7.0964V23.8289C26.3431 24.3416 26.1356 24.8312 25.7723 25.1937C25.4089 25.5563 24.9182 25.7633 24.4044 25.7711C24.1391 25.7811 23.8742 25.7388 23.6251 25.6464C23.376 25.5543 23.1477 25.414 22.953 25.2337C22.7583 25.0531 22.6011 24.8363 22.4904 24.5953C22.38 24.3542 22.318 24.0938 22.3083 23.8289ZM72.465 0.373501H58.092V5.453H62.733V30.4024H67.823V5.453H72.465V0.373501ZM87.437 0.373501V23.8289C87.437 24.344 87.232 24.838 86.867 25.2022C86.502 25.5665 86.007 25.7711 85.491 25.7711C84.974 25.7711 84.479 25.5665 84.114 25.2022C83.749 24.838 83.544 24.344 83.544 23.8289V0.373501H78.304V23.8289C78.304 25.7308 79.061 27.5549 80.409 28.8996C81.757 30.2444 83.584 31 85.491 31C87.397 31 89.224 30.2444 90.572 28.8996C91.92 27.5549 92.677 25.7308 92.677 23.8289V0.373501H87.437ZM134 5.453V0.373501H121.423V30.4024H134V25.3229H126.514V17.5543H131.305V12.4747H126.514V5.453H134ZM53.3 30.4024H47.9106L44.1676 16.2096C45.1014 16.0253 45.9416 15.5214 46.5429 14.785C47.1443 14.0486 47.4692 13.1258 47.4614 12.1759V7.5446C47.4675 7.2682 47.4176 6.9935 47.3144 6.737C47.2113 6.4805 47.0571 6.2474 46.8612 6.052C46.6653 5.8565 46.4318 5.7027 46.1748 5.5998C45.9176 5.4968 45.6423 5.4469 45.3653 5.453H43.419V30.4024H38.3285V0.373501H45.3653C47.225 0.356901 49.0176 1.0662 50.3603 2.3502C51.7029 3.6342 52.49 5.3911 52.552 7.2458V12.0265C52.62 13.2672 52.399 14.5068 51.9053 15.6475C51.4117 16.7882 50.6591 17.799 49.7072 18.6L53.3 30.4024ZM110.045 0.373501V16.8073L104.804 0.373501H99.564V30.4024H104.804V15.7614L109.596 30.4024H115.285V0.373501H110.045ZM0 0.821701V30.8506H5.39V18.0024H10.3307V12.9229H5.39V5.9012H13.1754V0.821701H0Z" fill="#6D6D6D"/>
</svg>
