<svg width="16" height="16" viewBox="0 0 16 16" fill="none" xmlns="http://www.w3.org/2000/svg">
<path d="M8.00062 4.18473C5.88938 4.18473 4.18548 5.88863 4.18548 7.99987C4.18548 10.1111 5.88938 11.815 8.00062 11.815C10.1119 11.815 11.8157 10.1111 11.8157 7.99987C11.8157 5.88863 10.1119 4.18473 8.00062 4.18473ZM8.00062 10.4794C6.63529 10.4794 5.5211 9.3652 5.5211 7.99987C5.5211 6.63454 6.63529 5.52035 8.00062 5.52035C9.36596 5.52035 10.4801 6.63454 10.4801 7.99987C10.4801 9.3652 9.36596 10.4794 8.00062 10.4794ZM11.972 3.13939C11.479 3.13939 11.081 3.53739 11.081 4.03035C11.081 4.5233 11.479 4.92139 11.972 4.92139C12.4649 4.92139 12.863 4.5252 12.863 4.03035C12.8631 3.9133 12.8401 3.79739 12.7955 3.6892C12.7507 3.58111 12.6851 3.48282 12.6023 3.40006C12.5196 3.3172 12.4213 3.25158 12.3131 3.20692C12.2049 3.16215 12.089 3.1392 11.972 3.13939ZM15.4374 7.99987C15.4374 6.97311 15.4467 5.95558 15.389 4.93063C15.3314 3.74015 15.0598 2.68368 14.1892 1.81311C13.3168 0.940726 12.2621 0.671012 11.0717 0.613298C10.0449 0.555679 9.02738 0.565012 8.00243 0.565012C6.97567 0.565012 5.95824 0.555679 4.93329 0.613298C3.74281 0.671012 2.68624 0.942536 1.81567 1.81311C0.943288 2.68549 0.673574 3.74015 0.615955 4.93063C0.558241 5.95749 0.567574 6.97492 0.567574 7.99987C0.567574 9.02482 0.558241 10.0442 0.615955 11.0691C0.673574 12.2596 0.945193 13.3161 1.81567 14.1866C2.68815 15.059 3.74281 15.3287 4.93329 15.3864C5.96005 15.4441 6.97757 15.4347 8.00243 15.4347C9.02929 15.4347 10.0467 15.4441 11.0717 15.3864C12.2621 15.3287 13.3187 15.0572 14.1892 14.1866C15.0617 13.3143 15.3314 12.2596 15.389 11.0691C15.4485 10.0442 15.4374 9.02663 15.4374 7.99987ZM13.8004 12.3861C13.6647 12.7245 13.501 12.9776 13.2387 13.238C12.9764 13.5002 12.7253 13.664 12.3868 13.7997C11.4083 14.1885 9.0851 14.1011 8.00062 14.1011C6.91615 14.1011 4.591 14.1885 3.61262 13.8016C3.27405 13.6658 3.0211 13.5021 2.76062 13.2399C2.49834 12.9776 2.33472 12.7264 2.19891 12.3879C1.81196 11.4076 1.89938 9.08434 1.89938 7.99987C1.89938 6.91539 1.81196 4.59025 2.19891 3.61187C2.33472 3.2733 2.49834 3.02035 2.76062 2.75987C3.02291 2.49949 3.27405 2.33397 3.61262 2.19816C4.591 1.8112 6.91615 1.89863 8.00062 1.89863C9.0851 1.89863 11.4102 1.8112 12.3886 2.19816C12.7272 2.33397 12.9801 2.49768 13.2405 2.75987C13.5028 3.02216 13.6665 3.2733 13.8023 3.61187C14.1892 4.59025 14.1018 6.91539 14.1018 7.99987C14.1018 9.08434 14.1892 11.4076 13.8004 12.3861Z" fill="white"/>
</svg>
