<svg width="16" height="16" viewBox="0 0 16 16" fill="none" xmlns="http://www.w3.org/2000/svg">
<path d="M6.96589 5.56858V6.66144H6.16589V7.99715H6.96589V11.9677H8.61037V7.99715H9.71351C9.71351 7.99715 9.81751 7.35668 9.86751 6.65582H8.61665V5.74316C8.61665 5.60582 8.79608 5.42249 8.9738 5.42249H9.86904V4.03125H8.65085C6.92542 4.03125 6.96589 5.36858 6.96589 5.56858Z" fill="white"/>
<path d="M3.23939 1.65081C2.81844 1.65081 2.41463 1.81805 2.11701 2.11567C1.8193 2.41338 1.65206 2.8171 1.65206 3.23805V12.7619C1.65206 13.1829 1.8193 13.5866 2.11701 13.8843C2.41463 14.182 2.81844 14.3492 3.23939 14.3492H12.7632C13.1842 14.3492 13.5879 14.182 13.8856 13.8843C14.1832 13.5866 14.3504 13.1829 14.3504 12.7619V3.23805C14.3504 2.8171 14.1832 2.41338 13.8856 2.11567C13.5879 1.81805 13.1842 1.65081 12.7632 1.65081H3.23939ZM3.23939 0.0634766H12.7632C13.6051 0.0634766 14.4126 0.397953 15.008 0.993286C15.6033 1.58862 15.9378 2.39614 15.9378 3.23805V12.7619C15.9378 13.6039 15.6033 14.4113 15.008 15.0067C14.4126 15.602 13.6051 15.9365 12.7632 15.9365H3.23939C2.39739 15.9365 1.58996 15.602 0.994629 15.0067C0.399296 14.4113 0.0648193 13.6039 0.0648193 12.7619V3.23805C0.0648193 2.39614 0.399296 1.58862 0.994629 0.993286C1.58996 0.397953 2.39739 0.0634766 3.23939 0.0634766Z" fill="white"/>
</svg>
