<svg width="17" height="17" viewBox="0 0 17 17" fill="none" xmlns="http://www.w3.org/2000/svg">
<path d="M12.5238 9.43836V12.4312H10.7891V9.63836C10.7891 8.93731 10.538 8.45883 9.90992 8.45883C9.43068 8.45883 9.14487 8.78103 9.01935 9.0935C8.97402 9.20522 8.96192 9.36065 8.96192 9.51607V12.4312H7.2263C7.2263 12.4312 7.24983 7.70198 7.2263 7.21217H8.96192V7.95131L8.95059 7.96826H8.96192V7.95207C9.19268 7.59588 9.60383 7.08912 10.5259 7.08912C11.6674 7.08912 12.5238 7.8355 12.5238 9.43836ZM5.41059 4.69531C4.81716 4.69531 4.42859 5.0855 4.42859 5.59712C4.42859 6.09903 4.80583 6.49979 5.38792 6.49979H5.39925C6.00478 6.49979 6.38116 6.09826 6.38116 5.59712C6.36983 5.0855 6.00478 4.69531 5.41059 4.69531ZM4.53135 12.4312H6.26697V7.21217H4.53135V12.4312Z" fill="white"/>
<path d="M3.61908 2.04776C3.18965 2.04776 2.77784 2.21833 2.47422 2.52195C2.1706 2.82557 2.00003 3.23738 2.00003 3.66681V13.3811C2.00003 13.8104 2.1706 14.2222 2.47422 14.5259C2.77784 14.8296 3.18965 15.0001 3.61908 15.0001H13.3334C13.7628 15.0001 14.1746 14.8296 14.4782 14.5259C14.7818 14.2222 14.9524 13.8104 14.9524 13.3811V3.66681C14.9524 3.23738 14.7818 2.82557 14.4782 2.52195C14.1746 2.21833 13.7628 2.04776 13.3334 2.04776H3.61908ZM3.61908 0.428711H13.3334C14.1921 0.428711 15.0157 0.769854 15.6231 1.37709C16.2303 1.98443 16.5715 2.80804 16.5715 3.66681V13.3811C16.5715 14.2399 16.2303 15.0635 15.6231 15.6707C15.0157 16.278 14.1921 16.6192 13.3334 16.6192H3.61908C2.76031 16.6192 1.9367 16.278 1.32936 15.6707C0.722124 15.0635 0.380981 14.2399 0.380981 13.3811V3.66681C0.380981 2.80804 0.722124 1.98443 1.32936 1.37709C1.9367 0.769854 2.76031 0.428711 3.61908 0.428711Z" fill="white"/>
</svg>
