<svg width="16" height="16" viewBox="0 0 16 16" fill="none" xmlns="http://www.w3.org/2000/svg">
<path d="M11.9708 5.57731C11.6787 5.70426 11.3652 5.7916 11.0358 5.82969C11.3724 5.63122 11.6295 5.31693 11.7517 4.94312C11.431 5.13007 11.0811 5.2615 10.7168 5.33207C10.5635 5.17141 10.3791 5.0436 10.1748 4.95655C9.97056 4.8695 9.75075 4.82502 9.52866 4.82569C8.62951 4.82569 7.90094 5.54398 7.90094 6.42883C7.90094 6.55426 7.91523 6.67645 7.94294 6.79398C7.29799 6.76331 6.66647 6.59855 6.08875 6.31026C5.51094 6.02188 4.99961 5.61636 4.58742 5.11931C4.44256 5.36312 4.36637 5.6414 4.36675 5.92493C4.36675 6.48045 4.65485 6.97255 5.09132 7.25902C4.83294 7.25093 4.58018 7.18217 4.35323 7.05826V7.07807C4.3557 7.45064 4.48723 7.81093 4.72542 8.09741C4.96361 8.38398 5.2937 8.57902 5.65961 8.6495C5.41942 8.71302 5.16808 8.72226 4.92389 8.67645C5.03037 8.99703 5.23399 9.27645 5.50647 9.47598C5.77894 9.6755 6.10685 9.78531 6.44456 9.78998C5.86513 10.2365 5.1538 10.4777 4.42228 10.4757C4.29132 10.4757 4.16199 10.4678 4.03418 10.4535C4.78066 10.926 5.64608 11.1762 6.52951 11.1749C9.52475 11.1749 11.162 8.73207 11.162 6.61302L11.1565 6.40502C11.4758 6.18064 11.7517 5.90017 11.9708 5.57731Z" fill="white"/>
<path d="M3.23939 1.65081C2.81844 1.65081 2.41463 1.81805 2.11701 2.11567C1.8193 2.41338 1.65206 2.8171 1.65206 3.23805V12.7619C1.65206 13.1829 1.8193 13.5866 2.11701 13.8843C2.41463 14.182 2.81844 14.3492 3.23939 14.3492H12.7632C13.1842 14.3492 13.5879 14.182 13.8856 13.8843C14.1832 13.5866 14.3504 13.1829 14.3504 12.7619V3.23805C14.3504 2.8171 14.1832 2.41338 13.8856 2.11567C13.5879 1.81805 13.1842 1.65081 12.7632 1.65081H3.23939ZM3.23939 0.0634766H12.7632C13.6051 0.0634766 14.4126 0.397953 15.008 0.993286C15.6033 1.58862 15.9378 2.39614 15.9378 3.23805V12.7619C15.9378 13.6039 15.6033 14.4113 15.008 15.0067C14.4126 15.602 13.6051 15.9365 12.7632 15.9365H3.23939C2.39739 15.9365 1.58996 15.602 0.994629 15.0067C0.399296 14.4113 0.0648193 13.6039 0.0648193 12.7619V3.23805C0.0648193 2.39614 0.399296 1.58862 0.994629 0.993286C1.58996 0.397953 2.39739 0.0634766 3.23939 0.0634766Z" fill="white"/>
</svg>
